<?xml version="1.0" encoding="UTF-8" standalone="no"?>
<svg
   xmlns:dc="http://purl.org/dc/elements/1.1/"
   xmlns:cc="http://creativecommons.org/ns#"
   xmlns:rdf="http://www.w3.org/1999/02/22-rdf-syntax-ns#"
   xmlns:svg="http://www.w3.org/2000/svg"
   xmlns="http://www.w3.org/2000/svg"
   xlmns="http://www.w3.org/2000/svg"
   viewBox="0, 0, 400,400"
   height="400"
   width="400"
   version="1.1"
   id="svg">
  <metadata
     id="metadata13">
    <rdf:RDF>
      <cc:Work
         rdf:about="">
        <dc:format>image/svg+xml</dc:format>
        <dc:type
           rdf:resource="http://purl.org/dc/dcmitype/StillImage" />
        <dc:title></dc:title>
        <dc:rights>
          <cc:Agent>
            <dc:title>Public domain</dc:title>
          </cc:Agent>
        </dc:rights>
        <cc:license
           rdf:resource="http://creativecommons.org/publicdomain/zero/1.0/" />
      </cc:Work>
      <cc:License
         rdf:about="http://creativecommons.org/publicdomain/zero/1.0/">
        <cc:permits
           rdf:resource="http://creativecommons.org/ns#Reproduction" />
        <cc:permits
           rdf:resource="http://creativecommons.org/ns#Distribution" />
        <cc:permits
           rdf:resource="http://creativecommons.org/ns#DerivativeWorks" />
      </cc:License>
    </rdf:RDF>
  </metadata>
  <defs
     id="defs11" />
  <g
     id="svgg">
    <path
       fill-rule="evenodd"
       fill="#1c1c1c"
       stroke="none"
       d="M67.155 0.154 C 67.065 0.239,66.377 0.408,65.625 0.530 C 62.838 0.980,60.547 1.636,60.547 1.985 C 60.547 2.182,60.020 2.344,59.375 2.344 C 58.730 2.344,58.203 2.530,58.203 2.757 C 58.203 2.985,58.046 3.074,57.853 2.955 C 57.661 2.836,57.001 3.000,56.388 3.320 C 55.775 3.640,55.058 3.903,54.795 3.904 C 54.531 3.905,53.753 4.249,53.064 4.667 C 52.376 5.086,51.669 5.339,51.492 5.230 C 51.316 5.121,51.172 5.185,51.172 5.371 C 51.172 5.558,49.942 6.227,48.439 6.859 C 46.936 7.491,45.705 8.140,45.705 8.301 C 45.704 8.462,45.430 8.594,45.096 8.594 C 44.763 8.594,43.884 9.077,43.143 9.668 C 42.403 10.259,41.685 10.683,41.548 10.611 C 41.410 10.539,41.191 10.633,41.059 10.819 C 40.928 11.006,39.854 11.754,38.672 12.482 C 37.490 13.210,36.346 13.995,36.128 14.227 C 35.559 14.834,33.282 16.406,32.972 16.406 C 32.827 16.406,32.366 16.802,31.947 17.285 C 31.527 17.769,31.067 18.164,30.923 18.164 C 30.780 18.164,30.104 18.748,29.423 19.461 C 28.741 20.175,28.038 20.785,27.861 20.818 C 27.390 20.906,26.172 22.001,26.172 22.337 C 26.172 22.621,23.188 25.571,21.680 26.777 C 21.250 27.121,21.162 27.272,21.484 27.114 C 21.807 26.955,21.587 27.285,20.996 27.847 C 20.405 28.409,19.922 29.053,19.922 29.278 C 19.922 29.503,19.629 29.688,19.271 29.688 C 18.913 29.688,18.722 29.790,18.848 29.915 C 18.973 30.041,18.783 30.455,18.424 30.837 C 17.398 31.931,15.763 34.040,14.621 35.742 C 14.044 36.602,13.463 37.393,13.329 37.500 C 13.195 37.607,12.664 38.486,12.149 39.453 C 11.634 40.420,10.977 41.486,10.689 41.822 C 10.402 42.158,9.606 43.564,8.921 44.947 C 8.236 46.330,7.564 47.549,7.427 47.656 C 7.124 47.894,5.368 52.223,5.449 52.533 C 5.480 52.655,5.084 53.585,4.567 54.600 C 4.050 55.615,3.348 57.324,3.007 58.398 C 2.143 61.118,0.701 66.114,0.615 66.688 C 0.576 66.950,0.425 67.284,0.279 67.429 C 0.134 67.574,0.010 93.945,0.004 126.029 L -0.007 184.365 54.977 184.431 C 107.304 184.493,154.606 184.485,176.045 184.410 L 185.880 184.375 185.940 177.637 C 185.973 173.931,186.030 132.446,186.066 85.449 L 186.133 -0.000 126.725 -0.000 C 94.051 -0.000,67.244 0.070,67.155 0.154 M214.897 92.127 L 214.976 184.263 234.343 184.433 C 255.343 184.617,258.904 184.618,343.264 184.473 L 400.005 184.375 399.895 123.926 C 399.785 63.071,399.766 62.071,398.682 59.989 C 398.355 59.360,398.176 58.701,398.285 58.524 C 398.394 58.348,398.311 58.203,398.101 58.203 C 397.739 58.203,397.032 56.000,397.191 55.371 C 397.232 55.210,397.090 55.078,396.875 55.078 C 396.660 55.078,396.484 54.649,396.484 54.125 C 396.484 53.600,396.298 53.056,396.070 52.915 C 395.646 52.653,394.963 51.133,394.713 49.894 C 394.636 49.514,394.223 48.711,393.794 48.109 C 393.366 47.508,392.961 46.764,392.895 46.457 C 392.828 46.150,392.361 45.316,391.856 44.605 C 391.352 43.894,390.904 43.067,390.860 42.768 C 390.816 42.469,390.514 41.909,390.190 41.523 C 389.402 40.586,388.109 38.542,388.096 38.215 C 388.091 38.071,387.692 37.500,387.210 36.945 C 386.728 36.391,386.420 35.938,386.526 35.938 C 386.632 35.938,386.411 35.604,386.035 35.196 C 384.841 33.900,383.008 31.513,383.008 31.254 C 383.008 31.116,382.499 30.531,381.877 29.955 C 381.254 29.378,380.845 28.906,380.968 28.906 C 381.360 28.906,373.677 21.336,370.675 18.765 C 369.079 17.399,367.644 16.089,367.486 15.855 C 367.329 15.621,367.197 15.588,367.193 15.782 C 367.190 15.976,366.836 15.730,366.406 15.234 C 365.977 14.739,365.622 14.492,365.619 14.686 C 365.616 14.880,365.484 14.852,365.326 14.623 C 365.036 14.201,361.803 12.042,359.473 10.712 C 358.774 10.314,358.203 9.850,358.203 9.681 C 358.203 9.513,358.071 9.411,357.910 9.455 C 357.521 9.562,355.063 8.243,354.382 7.563 C 354.086 7.267,353.682 7.124,353.484 7.246 C 353.287 7.368,353.125 7.282,353.125 7.054 C 353.125 6.827,352.817 6.635,352.441 6.628 C 352.065 6.622,351.075 6.197,350.241 5.684 C 349.407 5.171,348.512 4.833,348.253 4.933 C 347.993 5.032,347.556 4.842,347.280 4.510 C 347.005 4.178,346.440 3.906,346.024 3.906 C 345.609 3.906,344.499 3.555,343.557 3.126 C 342.616 2.697,341.527 2.297,341.137 2.236 C 340.748 2.175,340.254 2.030,340.039 1.913 C 339.824 1.796,338.857 1.473,337.891 1.195 C 336.924 0.918,335.636 0.539,335.028 0.355 C 334.420 0.170,307.124 0.013,274.371 0.005 L 214.819 -0.009 214.897 92.127 M101.842 40.224 L 106.613 40.234 106.624 53.027 C 106.630 60.063,106.669 68.501,106.712 71.777 L 106.789 77.734 112.672 77.793 C 115.907 77.826,125.373 77.891,133.706 77.939 C 142.040 77.986,148.953 78.120,149.070 78.236 C 149.186 78.352,149.250 81.759,149.212 85.806 C 149.175 89.853,149.117 95.933,149.084 99.316 L 149.023 105.469 146.680 105.504 C 139.216 105.615,125.432 105.763,116.602 105.825 L 106.445 105.897 106.524 128.659 L 106.602 151.421 92.685 151.394 L 78.768 151.367 78.654 129.121 C 78.591 116.885,78.462 106.674,78.368 106.429 C 78.245 106.107,72.635 105.920,58.203 105.755 C 47.207 105.630,38.114 105.432,37.997 105.315 C 37.880 105.197,37.763 98.988,37.737 91.516 L 37.690 77.930 58.081 77.971 L 78.473 78.012 78.512 71.721 C 78.534 68.261,78.587 59.805,78.631 52.930 L 78.711 40.430 82.031 40.234 C 83.857 40.127,87.988 40.078,91.211 40.126 C 94.434 40.174,99.217 40.218,101.842 40.224 M365.495 79.818 C 365.770 80.093,365.691 106.705,365.414 106.982 C 365.092 107.303,254.827 107.301,254.506 106.980 C 254.370 106.844,254.281 101.043,254.309 94.089 C 254.336 87.135,254.359 81.182,254.360 80.859 C 254.362 80.537,254.419 80.082,254.489 79.848 C 254.613 79.430,365.076 79.399,365.495 79.818 M0.009 272.949 C 0.015 312.018,0.156 333.157,0.415 334.180 C 0.633 335.039,0.865 335.918,0.929 336.133 C 0.994 336.348,1.182 337.185,1.349 337.993 C 1.515 338.801,1.799 339.553,1.980 339.665 C 2.161 339.777,2.217 340.109,2.105 340.403 C 1.992 340.696,2.090 341.054,2.323 341.198 C 2.556 341.342,2.646 341.624,2.522 341.824 C 2.399 342.024,2.470 342.188,2.680 342.188 C 2.891 342.188,3.175 342.698,3.312 343.321 C 3.449 343.945,3.902 345.125,4.320 345.943 C 4.737 346.761,5.078 347.735,5.078 348.106 C 5.078 348.478,5.254 348.891,5.469 349.023 C 5.684 349.156,5.859 349.494,5.859 349.774 C 5.859 350.053,6.519 351.512,7.324 353.014 C 8.130 354.516,8.847 355.989,8.918 356.287 C 8.989 356.585,9.169 356.918,9.318 357.028 C 9.812 357.391,10.960 359.375,10.677 359.375 C 10.523 359.375,10.739 359.633,11.156 359.949 C 11.573 360.264,11.777 360.528,11.609 360.534 C 11.441 360.541,11.984 361.470,12.815 362.598 C 13.646 363.726,14.557 365.081,14.838 365.609 C 15.119 366.137,15.719 366.878,16.171 367.256 C 16.622 367.634,16.848 367.949,16.671 367.956 C 16.495 367.963,16.583 368.208,16.867 368.500 C 17.151 368.793,17.910 369.682,18.555 370.477 C 20.261 372.579,29.620 381.969,29.815 381.773 C 29.906 381.682,30.431 382.142,30.981 382.796 C 31.531 383.450,32.099 383.984,32.243 383.984 C 32.581 383.984,35.604 386.297,36.195 387.008 C 36.444 387.307,36.795 387.572,36.976 387.597 C 37.653 387.689,39.844 389.154,39.844 389.515 C 39.844 389.721,40.005 389.790,40.203 389.668 C 40.400 389.546,40.827 389.711,41.152 390.035 C 41.476 390.360,41.874 390.625,42.037 390.625 C 42.199 390.625,42.695 390.944,43.139 391.334 C 43.582 391.725,45.264 392.629,46.875 393.344 C 48.486 394.059,50.112 394.910,50.488 395.234 C 50.864 395.559,51.172 395.712,51.172 395.574 C 51.172 395.437,52.204 395.849,53.466 396.490 C 54.728 397.132,56.208 397.656,56.754 397.656 C 57.300 397.656,57.806 397.788,57.878 397.949 C 58.710 399.822,57.863 399.797,124.080 399.908 L 185.855 400.012 185.996 395.231 C 186.130 390.707,186.085 234.960,185.946 220.215 L 185.881 213.281 92.940 213.281 L 0.000 213.281 0.009 272.949 M215.149 213.965 C 215.052 214.341,214.935 256.353,214.890 307.324 L 214.807 400.000 276.255 400.000 L 337.702 400.000 341.019 398.788 C 342.843 398.121,344.644 397.582,345.020 397.591 C 345.396 397.600,345.703 397.443,345.703 397.241 C 345.703 397.040,346.011 396.869,346.387 396.862 C 346.763 396.854,347.773 396.509,348.633 396.094 C 349.492 395.679,350.334 395.333,350.504 395.326 C 350.674 395.318,351.304 394.950,351.903 394.506 C 352.503 394.063,353.243 393.657,353.548 393.604 C 354.884 393.370,355.853 392.884,355.647 392.550 C 355.523 392.351,355.772 392.188,356.199 392.188 C 356.626 392.188,357.252 391.911,357.589 391.574 C 357.927 391.236,358.208 391.104,358.215 391.281 C 358.222 391.457,358.406 391.294,358.625 390.918 C 358.844 390.542,359.285 390.234,359.606 390.234 C 360.183 390.234,361.956 389.105,363.438 387.793 C 363.862 387.417,364.336 387.109,364.489 387.109 C 364.643 387.109,365.357 386.589,366.076 385.952 C 366.795 385.316,367.511 384.832,367.668 384.878 C 367.825 384.924,368.231 384.565,368.569 384.082 C 368.908 383.599,369.397 383.203,369.655 383.203 C 369.914 383.203,370.561 382.676,371.094 382.031 C 371.626 381.387,372.294 380.859,372.577 380.859 C 372.861 380.859,372.984 380.684,372.852 380.469 C 372.719 380.254,372.895 380.078,373.242 380.078 C 373.590 380.078,373.766 379.902,373.633 379.688 C 373.500 379.473,373.534 379.295,373.707 379.293 C 374.071 379.289,380.078 373.587,380.078 373.246 C 380.078 373.122,380.605 372.505,381.250 371.875 C 381.895 371.245,382.422 370.558,382.422 370.348 C 382.422 370.138,382.730 369.736,383.107 369.456 C 383.484 369.175,384.231 368.287,384.767 367.483 C 385.303 366.679,385.874 366.020,386.035 366.018 C 386.196 366.017,386.328 365.679,386.328 365.267 C 386.328 364.855,386.475 364.460,386.655 364.388 C 386.834 364.316,387.625 363.291,388.411 362.109 C 389.198 360.928,390.007 359.760,390.210 359.514 C 390.412 359.269,390.500 358.989,390.404 358.893 C 390.308 358.798,390.582 358.400,391.013 358.010 C 391.444 357.620,391.797 357.067,391.797 356.781 C 391.797 356.495,392.570 354.863,393.515 353.155 C 394.459 351.447,395.133 349.951,395.012 349.830 C 394.891 349.709,395.026 349.609,395.312 349.609 C 395.599 349.609,395.716 349.492,395.572 349.348 C 395.428 349.204,395.540 348.720,395.822 348.273 C 396.103 347.827,396.558 346.670,396.833 345.703 C 397.108 344.736,397.582 343.555,397.886 343.079 C 398.190 342.602,398.517 341.601,398.613 340.853 C 398.709 340.105,399.058 338.970,399.389 338.330 C 399.923 337.297,399.991 330.229,399.998 275.224 L 400.005 213.281 307.665 213.281 C 220.050 213.281,215.316 213.316,215.149 213.965 M67.578 252.989 C 69.189 254.526,73.116 258.437,76.303 261.681 C 79.491 264.924,82.259 267.578,82.456 267.578 C 82.652 267.578,82.813 267.731,82.813 267.917 C 82.813 268.461,86.484 272.045,86.914 271.922 C 87.129 271.860,87.172 271.942,87.011 272.104 C 86.633 272.482,87.882 273.880,88.343 273.595 C 88.535 273.476,88.666 273.524,88.635 273.701 C 88.383 275.155,88.153 275.358,99.245 264.355 C 102.873 260.757,105.987 257.813,106.164 257.813 C 106.668 257.813,109.023 255.255,108.796 254.955 C 108.685 254.808,108.716 254.780,108.865 254.893 C 109.286 255.213,113.666 250.701,113.395 250.226 C 113.264 249.994,113.278 249.913,113.427 250.045 C 113.576 250.178,114.705 249.244,115.936 247.970 L 118.174 245.655 119.732 247.302 C 120.588 248.208,121.777 249.406,122.373 249.963 C 125.975 253.331,132.524 259.871,132.031 259.608 C 131.709 259.435,132.749 260.510,134.341 261.996 C 137.936 265.348,137.940 265.383,135.016 268.270 C 133.697 269.573,131.325 271.971,129.746 273.601 C 128.167 275.230,126.836 276.563,126.788 276.563 C 126.376 276.563,120.929 282.254,121.029 282.580 C 121.100 282.816,121.024 282.873,120.859 282.708 C 120.457 282.306,117.933 284.783,118.240 285.279 C 118.372 285.492,118.296 285.554,118.072 285.415 C 117.847 285.276,117.353 285.645,116.974 286.234 C 116.595 286.823,114.616 288.936,112.577 290.929 L 108.868 294.553 109.764 295.507 C 110.257 296.031,110.815 296.365,111.004 296.248 C 111.193 296.131,111.299 296.183,111.240 296.362 C 111.181 296.542,113.310 298.796,115.972 301.372 C 118.633 303.947,122.443 307.725,124.439 309.766 C 126.435 311.807,130.366 315.824,133.175 318.693 C 138.925 324.567,138.686 324.163,137.099 325.337 C 136.402 325.852,136.026 326.404,136.185 326.680 C 136.332 326.938,136.306 327.015,136.127 326.852 C 135.801 326.557,133.984 327.999,133.984 328.552 C 133.984 328.712,130.615 332.223,126.496 336.354 L 119.008 343.865 117.610 342.239 C 116.840 341.345,116.073 340.616,115.903 340.619 C 115.734 340.622,111.058 336.099,105.511 330.566 C 99.965 325.034,94.742 319.853,93.905 319.053 C 93.068 318.254,91.698 316.891,90.860 316.026 C 88.946 314.049,89.134 314.014,86.616 316.797 C 85.450 318.086,84.391 319.141,84.263 319.141 C 84.134 319.141,79.493 323.731,73.948 329.340 C 68.404 334.950,63.538 339.828,63.136 340.180 C 62.734 340.532,61.783 341.479,61.024 342.284 L 59.642 343.748 58.239 342.691 C 57.467 342.110,52.938 337.747,48.173 332.995 L 39.510 324.357 40.840 323.214 C 41.572 322.585,42.174 321.934,42.179 321.767 C 42.191 321.320,51.195 312.377,52.131 311.882 C 52.570 311.650,52.871 311.210,52.799 310.906 C 52.728 310.601,52.805 310.488,52.972 310.654 C 53.328 311.010,57.083 307.430,56.812 306.993 C 56.711 306.829,56.834 306.567,57.085 306.412 C 57.398 306.219,57.438 306.303,57.212 306.678 C 56.930 307.145,56.979 307.147,57.542 306.690 C 57.906 306.396,58.203 305.985,58.203 305.778 C 58.203 305.571,59.609 304.026,61.328 302.344 C 63.047 300.662,64.453 299.114,64.453 298.905 C 64.453 298.695,65.068 298.033,65.820 297.434 C 66.572 296.834,67.188 296.192,67.188 296.006 C 67.188 295.821,67.623 295.200,68.154 294.627 L 69.121 293.584 68.281 292.690 C 67.820 292.199,67.295 291.797,67.116 291.797 C 66.937 291.797,61.157 286.172,54.273 279.297 C 47.388 272.422,41.874 266.797,42.019 266.797 C 42.164 266.797,42.066 266.535,41.800 266.215 C 41.535 265.895,41.135 265.747,40.911 265.885 C 40.675 266.031,40.621 265.947,40.783 265.685 C 40.939 265.432,40.837 265.234,40.550 265.234 C 40.269 265.234,42.273 263.036,45.003 260.351 C 47.733 257.666,49.899 255.469,49.817 255.469 C 49.735 255.469,50.748 254.458,52.069 253.223 C 53.390 251.987,55.336 250.098,56.394 249.023 C 59.930 245.435,60.002 245.423,62.500 247.989 C 63.682 249.202,65.967 251.453,67.578 252.989 M363.991 268.985 L 363.867 282.812 357.227 282.816 C 300.870 282.848,283.518 282.851,269.471 282.834 L 252.810 282.813 252.816 281.152 C 252.820 280.239,252.740 274.219,252.638 267.773 C 252.536 261.328,252.526 255.857,252.616 255.616 C 252.736 255.295,267.647 255.175,308.447 255.168 L 364.115 255.158 363.991 268.985 M345.402 300.813 C 353.874 300.851,361.494 300.995,362.336 301.132 L 363.867 301.380 363.936 314.649 C 363.977 322.434,363.854 328.101,363.640 328.359 C 363.219 328.866,253.405 328.925,252.898 328.419 C 252.545 328.066,252.435 301.732,252.785 301.381 C 252.921 301.246,260.919 301.032,270.559 300.905 C 280.199 300.779,288.115 300.656,288.151 300.631 C 288.214 300.588,313.411 300.668,345.402 300.813 "
       id="path0" />
    <path
       fill-rule="evenodd"
       fill="#242424"
       stroke="none"
       d="M186.059 18.555 C 186.061 19.844,186.134 20.324,186.221 19.622 C 186.308 18.920,186.306 17.865,186.217 17.278 C 186.127 16.691,186.056 17.266,186.059 18.555 M23.618 24.707 L 21.680 26.758 23.730 24.819 C 25.636 23.018,25.960 22.656,25.669 22.656 C 25.607 22.656,24.684 23.579,23.618 24.707 M186.049 33.789 C 186.052 34.863,186.128 35.256,186.218 34.663 C 186.308 34.069,186.305 33.190,186.212 32.709 C 186.120 32.229,186.046 32.715,186.049 33.789 M106.401 44.922 C 106.401 47.607,106.463 48.706,106.539 47.363 C 106.615 46.021,106.615 43.823,106.539 42.480 C 106.463 41.138,106.401 42.236,106.401 44.922 M106.341 52.734 C 106.341 53.486,106.421 53.794,106.519 53.418 C 106.618 53.042,106.618 52.427,106.519 52.051 C 106.421 51.675,106.341 51.982,106.341 52.734 M78.606 59.766 C 78.606 60.518,78.687 60.825,78.785 60.449 C 78.883 60.073,78.883 59.458,78.785 59.082 C 78.687 58.706,78.606 59.014,78.606 59.766 M48.926 78.021 C 49.946 78.102,51.616 78.102,52.637 78.021 C 53.657 77.941,52.822 77.875,50.781 77.875 C 48.740 77.875,47.905 77.941,48.926 78.021 M70.801 78.014 C 71.392 78.104,72.358 78.104,72.949 78.014 C 73.540 77.925,73.057 77.851,71.875 77.851 C 70.693 77.851,70.210 77.925,70.801 78.014 M129.996 78.024 C 131.347 78.100,133.456 78.100,134.683 78.023 C 135.910 77.945,134.805 77.883,132.227 77.884 C 129.648 77.884,128.645 77.947,129.996 78.024 M280.371 79.589 C 283.218 79.656,287.876 79.656,290.723 79.589 C 293.569 79.522,291.240 79.467,285.547 79.467 C 279.854 79.467,277.524 79.522,280.371 79.589 M346.191 79.584 C 347.212 79.664,348.882 79.664,349.902 79.584 C 350.923 79.504,350.088 79.438,348.047 79.438 C 346.006 79.438,345.171 79.504,346.191 79.584 M148.919 96.484 C 148.919 97.236,148.999 97.544,149.097 97.168 C 149.196 96.792,149.196 96.177,149.097 95.801 C 148.999 95.425,148.919 95.732,148.919 96.484 M133.506 105.755 C 134.425 105.838,135.831 105.837,136.631 105.753 C 137.431 105.669,136.680 105.601,134.961 105.603 C 133.242 105.604,132.588 105.673,133.506 105.755 M106.341 107.813 C 106.341 108.564,106.421 108.872,106.519 108.496 C 106.618 108.120,106.618 107.505,106.519 107.129 C 106.421 106.753,106.341 107.061,106.341 107.813 M356.558 107.321 C 357.909 107.397,360.019 107.397,361.246 107.319 C 362.473 107.242,361.367 107.180,358.789 107.180 C 356.211 107.181,355.207 107.244,356.558 107.321 M186.087 115.039 C 186.087 117.617,186.151 118.621,186.227 117.270 C 186.304 115.919,186.303 113.809,186.226 112.582 C 186.148 111.355,186.086 112.461,186.087 115.039 M78.650 124.414 C 78.651 126.133,78.720 126.787,78.802 125.869 C 78.885 124.950,78.884 123.544,78.800 122.744 C 78.716 121.944,78.648 122.695,78.650 124.414 M106.250 150.369 C 106.250 150.995,105.922 151.155,104.395 151.275 L 102.539 151.422 104.590 151.492 C 106.536 151.559,106.641 151.513,106.641 150.586 C 106.641 150.049,106.553 149.609,106.445 149.609 C 106.338 149.609,106.250 149.951,106.250 150.369 M186.069 160.547 C 186.069 162.158,186.138 162.817,186.222 162.012 C 186.306 161.206,186.306 159.888,186.222 159.082 C 186.138 158.276,186.069 158.936,186.069 160.547 M133.717 184.668 C 137.759 184.731,144.263 184.731,148.170 184.667 C 152.077 184.604,148.770 184.552,140.820 184.552 C 132.871 184.552,129.675 184.604,133.717 184.668 M257.910 184.666 C 259.790 184.737,262.866 184.737,264.746 184.666 C 266.626 184.594,265.088 184.536,261.328 184.536 C 257.568 184.536,256.030 184.594,257.910 184.666 M186.069 237.500 C 186.069 239.111,186.138 239.771,186.222 238.965 C 186.306 238.159,186.306 236.841,186.222 236.035 C 186.138 235.229,186.069 235.889,186.069 237.500 M60.156 245.825 C 60.156 245.893,60.728 246.464,61.426 247.095 L 62.695 248.242 61.548 246.973 C 60.479 245.789,60.156 245.524,60.156 245.825 M116.002 247.950 L 113.867 250.195 116.025 248.148 L 118.182 246.100 119.833 247.751 C 120.741 248.660,121.484 249.310,121.484 249.197 C 121.484 249.083,120.731 248.251,119.810 247.348 L 118.136 245.705 116.002 247.950 M69.141 254.883 C 71.820 257.568,74.100 259.766,74.207 259.766 C 74.314 259.766,72.210 257.568,69.531 254.883 C 66.852 252.197,64.572 250.000,64.465 250.000 C 64.357 250.000,66.462 252.197,69.141 254.883 M52.905 252.441 L 51.758 253.711 53.027 252.564 C 54.211 251.494,54.476 251.172,54.175 251.172 C 54.107 251.172,53.536 251.743,52.905 252.441 M262.800 255.361 C 263.502 255.448,264.557 255.446,265.144 255.357 C 265.731 255.268,265.156 255.197,263.867 255.199 C 262.578 255.201,262.098 255.274,262.800 255.361 M46.665 258.691 L 44.727 260.742 46.777 258.804 C 47.905 257.738,48.828 256.815,48.828 256.753 C 48.828 256.461,48.466 256.786,46.665 258.691 M76.758 262.500 C 77.816 263.574,78.769 264.453,78.877 264.453 C 78.984 264.453,78.207 263.574,77.148 262.500 C 76.090 261.426,75.137 260.547,75.029 260.547 C 74.922 260.547,75.700 261.426,76.758 262.500 M135.547 263.477 C 136.276 264.229,136.960 264.844,137.067 264.844 C 137.175 264.844,136.666 264.229,135.938 263.477 C 135.209 262.725,134.524 262.109,134.417 262.109 C 134.310 262.109,134.818 262.725,135.547 263.477 M84.375 270.117 C 85.104 270.869,85.788 271.484,85.895 271.484 C 86.003 271.484,85.494 270.869,84.766 270.117 C 84.037 269.365,83.353 268.750,83.245 268.750 C 83.138 268.750,83.646 269.365,84.375 270.117 M129.297 273.633 C 127.696 275.244,126.475 276.563,126.582 276.563 C 126.689 276.563,128.087 275.244,129.688 273.633 C 131.288 272.021,132.510 270.703,132.402 270.703 C 132.295 270.703,130.897 272.021,129.297 273.633 M186.071 275.195 C 186.073 276.914,186.142 277.569,186.224 276.650 C 186.307 275.731,186.305 274.325,186.221 273.525 C 186.138 272.725,186.070 273.477,186.071 275.195 M363.763 275.781 C 363.763 276.533,363.843 276.841,363.941 276.465 C 364.039 276.089,364.039 275.474,363.941 275.098 C 363.843 274.722,363.763 275.029,363.763 275.781 M123.608 279.395 L 122.461 280.664 123.730 279.517 C 124.914 278.447,125.180 278.125,124.878 278.125 C 124.811 278.125,124.239 278.696,123.608 279.395 M306.543 283.099 C 307.456 283.181,308.950 283.181,309.863 283.099 C 310.776 283.016,310.029 282.949,308.203 282.949 C 306.377 282.949,305.630 283.016,306.543 283.099 M186.055 291.797 C 186.055 292.979,186.128 293.462,186.217 292.871 C 186.307 292.280,186.307 291.313,186.217 290.723 C 186.128 290.132,186.055 290.615,186.055 291.797 M121.484 307.227 C 125.240 310.986,128.400 314.063,128.507 314.063 C 128.615 314.063,125.630 310.986,121.875 307.227 C 118.120 303.467,114.960 300.391,114.852 300.391 C 114.745 300.391,117.729 303.467,121.484 307.227 M358.887 301.057 C 359.370 301.150,360.161 301.150,360.645 301.057 C 361.128 300.964,360.732 300.888,359.766 300.888 C 358.799 300.888,358.403 300.964,358.887 301.057 M363.800 306.055 C 363.802 307.559,363.872 308.126,363.957 307.316 C 364.042 306.505,364.040 305.275,363.954 304.581 C 363.868 303.888,363.798 304.551,363.800 306.055 M363.763 310.156 C 363.763 310.908,363.843 311.216,363.941 310.840 C 364.039 310.464,364.039 309.849,363.941 309.473 C 363.843 309.097,363.763 309.404,363.763 310.156 M363.763 313.281 C 363.763 314.033,363.843 314.341,363.941 313.965 C 364.039 313.589,364.039 312.974,363.941 312.598 C 363.843 312.222,363.763 312.529,363.763 313.281 M86.317 316.699 L 83.789 319.336 86.405 316.829 C 88.775 314.558,89.086 314.374,89.725 314.876 C 90.368 315.381,90.383 315.370,89.894 314.746 C 89.131 313.774,89.110 313.786,86.317 316.699 M128.906 314.575 C 128.906 314.643,129.478 315.214,130.176 315.845 L 131.445 316.992 130.298 315.723 C 129.229 314.539,128.906 314.274,128.906 314.575 M363.770 319.336 C 363.775 320.195,363.855 320.501,363.948 320.015 C 364.042 319.529,364.038 318.826,363.940 318.452 C 363.842 318.079,363.766 318.477,363.770 319.336 M363.808 324.219 C 363.808 326.045,363.876 326.792,363.958 325.879 C 364.040 324.966,364.040 323.472,363.958 322.559 C 363.876 321.646,363.808 322.393,363.808 324.219 M79.688 323.242 C 78.739 324.209,78.050 325.000,78.158 325.000 C 78.265 325.000,79.129 324.209,80.078 323.242 C 81.027 322.275,81.715 321.484,81.608 321.484 C 81.501 321.484,80.636 322.275,79.688 323.242 M71.089 331.934 L 65.430 337.695 71.191 332.036 C 76.544 326.779,77.130 326.172,76.850 326.172 C 76.794 326.172,74.201 328.765,71.089 331.934 M271.001 328.792 C 271.487 328.885,272.190 328.882,272.563 328.784 C 272.937 328.686,272.539 328.610,271.680 328.614 C 270.820 328.618,270.515 328.698,271.001 328.792 M346.387 328.791 C 346.870 328.884,347.661 328.884,348.145 328.791 C 348.628 328.698,348.232 328.622,347.266 328.622 C 346.299 328.622,345.903 328.698,346.387 328.791 M48.633 333.594 C 50.557 335.527,52.220 337.109,52.327 337.109 C 52.435 337.109,50.948 335.527,49.023 333.594 C 47.099 331.660,45.436 330.078,45.329 330.078 C 45.221 330.078,46.708 331.660,48.633 333.594 M60.327 342.676 L 59.180 343.945 60.449 342.798 C 61.633 341.729,61.898 341.406,61.597 341.406 C 61.529 341.406,60.958 341.978,60.327 342.676 M186.055 354.297 C 186.055 355.479,186.128 355.962,186.217 355.371 C 186.307 354.780,186.307 353.813,186.217 353.223 C 186.128 352.632,186.055 353.115,186.055 354.297 M377.124 376.270 L 375.977 377.539 377.246 376.392 C 377.944 375.761,378.516 375.189,378.516 375.122 C 378.516 374.820,378.193 375.086,377.124 376.270 "
       id="path1" />
    <path
       fill-rule="evenodd"
       fill="#201c1c"
       stroke="none"
       d="M186.049 8.398 C 186.052 9.473,186.128 9.866,186.218 9.272 C 186.308 8.678,186.305 7.799,186.212 7.319 C 186.120 6.838,186.046 7.324,186.049 8.398 M186.093 42.578 C 186.093 45.693,186.153 46.968,186.228 45.410 C 186.302 43.853,186.302 41.304,186.228 39.746 C 186.153 38.188,186.093 39.463,186.093 42.578 M186.106 101.367 C 186.106 106.523,186.162 108.579,186.229 105.935 C 186.297 103.290,186.297 99.072,186.229 96.560 C 186.161 94.048,186.106 96.211,186.106 101.367 M186.088 124.219 C 186.088 126.904,186.150 128.003,186.227 126.660 C 186.303 125.317,186.303 123.120,186.227 121.777 C 186.150 120.435,186.088 121.533,186.088 124.219 M214.980 134.766 C 214.980 136.592,215.048 137.339,215.130 136.426 C 215.212 135.513,215.212 134.019,215.130 133.105 C 215.048 132.192,214.980 132.939,214.980 134.766 M186.071 269.336 C 186.073 271.055,186.142 271.709,186.224 270.790 C 186.307 269.872,186.305 268.465,186.221 267.665 C 186.138 266.865,186.070 267.617,186.071 269.336 M186.095 283.984 C 186.095 287.314,186.155 288.677,186.228 287.012 C 186.301 285.347,186.301 282.622,186.228 280.957 C 186.155 279.292,186.095 280.654,186.095 283.984 M214.969 281.250 C 214.969 282.646,215.040 283.218,215.126 282.520 C 215.213 281.821,215.213 280.679,215.126 279.980 C 215.040 279.282,214.969 279.854,214.969 281.250 M186.044 313.672 C 186.044 314.639,186.120 315.034,186.213 314.551 C 186.306 314.067,186.306 313.276,186.213 312.793 C 186.120 312.310,186.044 312.705,186.044 313.672 M186.036 397.070 C 186.040 397.930,186.120 398.235,186.214 397.749 C 186.307 397.263,186.304 396.560,186.206 396.187 C 186.108 395.813,186.032 396.211,186.036 397.070 "
       id="path2" />
    <path
       fill-rule="evenodd"
       fill="#1c2420"
       stroke="none"
       d=""
       id="path3" />
    <path
       fill-rule="evenodd"
       fill="#1c1c24"
       stroke="none"
       d=""
       id="path4" />
  </g>
</svg>
